<svg id="Layer_1" data-name="Layer 1" xmlns="https://www.w3.org/2000/svg" viewBox="0 0 17.14 13.71"><defs><style>.cls-1{fill:#fff;}</style></defs><title>Artboard 10</title><path class="cls-1" d="M17.14,12.28a1.43,1.43,0,0,1-1.43,1.43H1.43A1.43,1.43,0,0,1,0,12.28V1.43A1.43,1.43,0,0,1,1.43,0H15.71a1.43,1.43,0,0,1,1.43,1.43ZM1.43,1.14a.29.29,0,0,0-.29.29V12.28a.29.29,0,0,0,.29.29H15.71a.29.29,0,0,0,.29-.29V1.43a.29.29,0,0,0-.29-.29ZM4,5.71A1.71,1.71,0,1,1,5.71,4,1.71,1.71,0,0,1,4,5.71Zm10.85,5.71H2.29V9.71L5.14,6.86,6.57,8.28l4.57-4.57,3.71,3.71Z"/></svg>