<?xml version="1.0" encoding="utf-8"?>
<!-- Generator: Adobe Illustrator 21.0.0, SVG Export Plug-In . SVG Version: 6.00 Build 0)  -->
<svg version="1.1" id="Layer_1" xmlns="http://www.w3.org/2000/svg" xmlns:xlink="http://www.w3.org/1999/xlink" x="0px" y="0px"
	 viewBox="0 0 23 16" style="enable-background:new 0 0 23 16;" xml:space="preserve">
<style type="text/css">
	.st0{enable-background:new    ;}
	.st1{fill:#FFFFFF;}
</style>
<g id="mobile-home-and-menu">
	<g class="st0">
		<path class="st1" d="M22.8,13.9c0,1.2-1,2.1-2.1,2.1H2.1C1,16,0,15,0,13.9V1.7h2.9V0.3h20V13.9z M2.9,3.2H1.4v10.7
			c0,0.4,0.3,0.7,0.7,0.7s0.7-0.3,0.7-0.7V3.2z M21.4,1.7H4.3v12.1c0,0.2,0,0.5-0.1,0.7h16.5c0.4,0,0.7-0.3,0.7-0.7V1.7z M12.8,10.3
			H5.7V3.2h7.1V10.3z M12.8,13.1H5.7v-1.4h7.1V13.1z M7.1,4.6v4.3h4.3V4.6H7.1z M20,4.6h-5.7V3.2H20V4.6z M20,7.4h-5.7V6H20V7.4z
			 M20,10.3h-5.7V8.9H20V10.3z M20,13.1h-5.7v-1.4H20V13.1z"/>
	</g>
</g>
</svg>
