<?xml version="1.0" encoding="utf-8"?>
<!-- Generator: Adobe Illustrator 21.0.0, SVG Export Plug-In . SVG Version: 6.00 Build 0)  -->
<svg version="1.1" id="Layer_1" xmlns="http://www.w3.org/2000/svg" xmlns:xlink="http://www.w3.org/1999/xlink" x="0px" y="0px"
	 viewBox="0 0 24 24" style="enable-background:new 0 0 24 24;" xml:space="preserve">
<style type="text/css">
	.st0{fill:#FFFFFF;}
</style>
<path class="st0" d="M17.2,15.1L17.2,15.1c0,1.1-0.4,2.1-1.1,2.9c-0.7,0.8-1.7,1.3-2.9,1.5v2c0,0.1,0,0.2-0.1,0.3
	c-0.1,0.1-0.2,0.1-0.3,0.1h-1.5c-0.1,0-0.2,0-0.3-0.1C11,21.7,11,21.6,11,21.5v-2c-0.5-0.1-1-0.2-1.4-0.3c-0.5-0.2-0.8-0.3-1.1-0.5
	c-0.3-0.2-0.6-0.3-0.8-0.5c-0.3-0.2-0.4-0.3-0.5-0.4c-0.1-0.1-0.2-0.2-0.2-0.2c-0.1-0.2-0.1-0.3,0-0.5L8,15.6
	c0.1-0.1,0.1-0.1,0.3-0.1c0.1,0,0.2,0,0.3,0.1l0,0c0.8,0.7,1.7,1.2,2.7,1.4c0.3,0.1,0.6,0.1,0.8,0.1c0.6,0,1.1-0.2,1.6-0.5
	c0.5-0.3,0.7-0.8,0.7-1.4c0-0.2-0.1-0.4-0.2-0.6c-0.1-0.2-0.2-0.3-0.4-0.5c-0.1-0.1-0.4-0.3-0.7-0.4c-0.3-0.2-0.5-0.3-0.7-0.4
	c-0.2-0.1-0.5-0.2-0.9-0.4c-0.3-0.1-0.5-0.2-0.7-0.3c-0.2-0.1-0.4-0.2-0.7-0.3c-0.3-0.1-0.5-0.2-0.7-0.3c-0.2-0.1-0.4-0.2-0.6-0.4
	c-0.2-0.2-0.4-0.3-0.6-0.5c-0.2-0.2-0.3-0.3-0.5-0.5c-0.2-0.2-0.3-0.4-0.4-0.6C7.3,9.8,7.2,9.6,7.1,9.3C7.1,9,7,8.7,7,8.4
	c0-1,0.4-1.9,1.1-2.7C8.9,4.9,9.8,4.4,11,4.2v-2C11,2.1,11,2,11.1,2c0.1-0.1,0.2-0.1,0.3-0.1h1.5c0.1,0,0.2,0,0.3,0.1
	c0.1,0.1,0.1,0.2,0.1,0.3v2c0.4,0,0.8,0.1,1.2,0.3c0.4,0.1,0.7,0.3,1,0.4c0.2,0.1,0.5,0.3,0.7,0.4c0.2,0.2,0.4,0.3,0.4,0.3
	c0.1,0.1,0.1,0.1,0.2,0.2c0.1,0.1,0.1,0.3,0.1,0.4l-0.9,1.6c-0.1,0.1-0.1,0.2-0.3,0.2c-0.1,0-0.2,0-0.3-0.1c0,0-0.1-0.1-0.2-0.1
	c-0.1-0.1-0.2-0.2-0.4-0.3c-0.2-0.1-0.4-0.2-0.7-0.4c-0.2-0.1-0.5-0.2-0.8-0.3c-0.3-0.1-0.6-0.1-1-0.1c-0.7,0-1.3,0.2-1.7,0.5
	c-0.4,0.3-0.7,0.7-0.7,1.2c0,0.2,0,0.4,0.1,0.5c0.1,0.2,0.2,0.3,0.3,0.5c0.2,0.1,0.3,0.3,0.4,0.4c0.1,0.1,0.3,0.2,0.6,0.3
	c0.3,0.1,0.5,0.2,0.7,0.3c0.2,0.1,0.4,0.2,0.8,0.3c0.4,0.1,0.7,0.3,0.9,0.4c0.2,0.1,0.5,0.2,0.8,0.4c0.4,0.2,0.6,0.3,0.8,0.5
	c0.2,0.1,0.4,0.3,0.7,0.6c0.3,0.2,0.5,0.5,0.6,0.7c0.1,0.2,0.3,0.5,0.4,0.9C17.2,14.4,17.2,14.7,17.2,15.1z"/>
</svg>
