<?xml version="1.0" encoding="utf-8"?>
<!-- Generator: Adobe Illustrator 21.0.0, SVG Export Plug-In . SVG Version: 6.00 Build 0)  -->
<svg version="1.1" id="Layer_1" xmlns="http://www.w3.org/2000/svg" xmlns:xlink="http://www.w3.org/1999/xlink" x="0px" y="0px"
	 viewBox="0 0 24 24" style="enable-background:new 0 0 24 24;" xml:space="preserve">
<style type="text/css">
	.st0{fill:#FFFFFF;}
</style>
<path class="st0" d="M19,5c0.6,0,1,0.2,1.4,0.6C20.8,6,21,6.4,21,7v12c0,0.5-0.2,1-0.6,1.4C20,20.8,19.6,21,19,21H5
	c-0.5,0-1-0.2-1.4-0.6S3,19.5,3,19V7c0-0.6,0.2-1,0.6-1.4C4,5.2,4.5,5,5,5h0.9v2h3.2V5h5.8v2h3.2V5H19z M19,19v-8H5v8H19z M8.2,3
	v3.4H6.8V3H8.2z M17.2,3v3.4h-1.4V3H17.2z"/>
</svg>
