<?xml version="1.0" encoding="utf-8"?>
<!-- Generator: Adobe Illustrator 21.0.0, SVG Export Plug-In . SVG Version: 6.00 Build 0)  -->
<svg version="1.1" id="Layer_1" xmlns="http://www.w3.org/2000/svg" xmlns:xlink="http://www.w3.org/1999/xlink" x="0px" y="0px"
	 viewBox="0 0 24 24" style="enable-background:new 0 0 24 24;" xml:space="preserve">
<style type="text/css">
	.st0{fill:#FFFFFF;}
</style>
<path class="st0" d="M19.1,8.6h-2l-2.5-3l-4.3,3H6.8C6.1,8.6,5.5,8.9,5,9.4c-0.5,0.5-0.8,1.1-0.8,1.8v3.2L2,8.5
	c-0.1-0.5,0-0.9,0.4-1l13.6-5c0.5-0.1,0.8,0,1,0.5L19.1,8.6z M21.2,10.4c0.2,0,0.4,0.1,0.5,0.2c0.1,0.2,0.2,0.3,0.2,0.6v9.4
	c0,0.2-0.1,0.4-0.2,0.6c-0.1,0.2-0.3,0.2-0.5,0.2H6.8c-0.2,0-0.4-0.1-0.5-0.2C6.1,21.1,6,20.9,6,20.7v-9.4c0-0.2,0.1-0.4,0.2-0.6
	c0.1-0.2,0.3-0.2,0.5-0.2H21.2z M20.1,19.5v-3.2L18.7,13l-3.3,1.2l-2.6,2.6L10,13.5l-1.8,4.3v1.7H20.1z"/>
</svg>
