<?xml version="1.0" encoding="utf-8"?>
<!-- Generator: Adobe Illustrator 21.0.0, SVG Export Plug-In . SVG Version: 6.00 Build 0)  -->
<svg version="1.1" id="Layer_1" xmlns="http://www.w3.org/2000/svg" xmlns:xlink="http://www.w3.org/1999/xlink" x="0px" y="0px"
	 viewBox="0 0 24 24" style="enable-background:new 0 0 24 24;" xml:space="preserve">
<style type="text/css">
	.st0{fill:#FFFFFF;}
</style>
<path class="st0" d="M18,3c0.6,0,1,0.2,1.4,0.6C19.8,4,20,4.4,20,5v14c0,0.5-0.2,1-0.6,1.4C19,20.8,18.6,21,18,21H6
	c-0.5,0-1-0.2-1.4-0.6S4,19.5,4,19V5c0-0.6,0.2-1,0.6-1.4C5,3.2,5.5,3,6,3H18z M18,19V5H6v14H18z M11,7v4H8V7H11z M10,12v1H8v-1H10z
	 M13,14v1H8v-1H13z M16,16v1H8v-1H16z M11,13v-1h5v1H11z M12,9V7h4v2H12z M16,10v1h-4v-1H16z M14,15v-1h2v1H14z"/>
</svg>
