<svg id="Layer_1" data-name="Layer 1" xmlns="http://www.w3.org/2000/svg" viewBox="0 0 24 24"><defs><style>.cls-1{isolation:isolate;}.cls-2{fill:#fff;}</style></defs><g id="mobile-home-and-menu"><g id="pencil---FontAwesome-Copy-3" class="cls-1"><g class="cls-1"><path class="cls-2" d="M17.3,11.5,8.1,20.8H3.4V16.2l9.3-9.3ZM8.5,18.4,5.9,15.7l-1,1v1.2H6.3v1.4H7.5Zm4.6-9.6h-.2l-6,6v.2a.2.2,0,0,0,.2.2h.2l6-6V9A.2.2,0,0,0,13.1,8.8Zm6.8.2-1.9,1.9L13.4,6.2l1.9-1.8a1.4,1.4,0,0,1,1-.4,1.4,1.4,0,0,1,1,.4l2.6,2.6a1.5,1.5,0,0,1,.4,1A1.4,1.4,0,0,1,19.9,8.9Z"/></g></g></g></svg>