<?xml version="1.0" encoding="UTF-8" standalone="no"?>
<svg width="136px" height="136px" viewBox="0 0 136 136" version="1.1" xmlns="https://www.w3.org/2000/svg" xmlns:xlink="https://www.w3.org/1999/xlink">
    <!-- Generator: Sketch 3.8.3 (29802) - http://www.bohemiancoding.com/sketch -->
    <title>gef-logo</title>
    <desc>Created with Sketch.</desc>
    <defs></defs>
    <g id="Page-1" stroke="none" stroke-width="1" fill="none" fill-rule="evenodd">
        <g id="Icon_01_03">
            <g id="Group">
                <path d="M120.245545,68.2313725 C120.245545,39.7568627 96.950495,16.3862745 68.4039604,16.3862745 C39.8574257,16.3862745 16.5623762,39.622549 16.5623762,68.0970588 C16.5623762,96.5715686 39.8574257,119.942157 68.4039604,119.942157 C96.950495,119.942157 120.245545,96.7058824 120.245545,68.2313725 Z" id="Shape" stroke="#053F51" fill="#44B9B9"></path>
                <path d="M68.4039604,13.7 C38.3762376,13.7 13.8693069,38.145098 13.8693069,68.0970588 C13.8693069,98.0490196 38.3762376,122.494118 68.4039604,122.494118 C98.4316832,122.494118 122.938614,98.0490196 122.938614,68.0970588 C122.938614,38.145098 98.4316832,13.7 68.4039604,13.7 L68.4039604,13.7 Z M68.4039604,19.072549 C95.6039604,19.072549 117.552475,41.1 117.552475,68.0970588 C117.552475,95.0941176 95.6039604,117.255882 68.4039604,117.255882 C41.2039604,117.255882 19.2554455,95.2284314 19.2554455,68.2313725 C19.2554455,41.2343137 41.3386139,19.072549 68.4039604,19.072549 L68.4039604,19.072549 Z" id="Shape" fill="#053F51"></path>
                <ellipse id="Oval" fill="#053F51" cx="79.3108911" cy="3.49215686" rx="2.82772277" ry="2.82058824"></ellipse>
                <path d="M85.7742574,2.82058824 C84.4277228,2.82058824 83.350495,3.62647059 83.0811881,4.83529412 C82.9465347,5.50686275 83.0811881,6.3127451 83.4851485,6.98431373 C83.8891089,7.52156863 84.4277228,7.9245098 84.9663366,8.05882353 C112.031683,15.5803922 130.883168,40.2941176 130.883168,68.2313725 C130.883168,102.615686 102.875248,130.687255 68.2693069,130.687255 C33.6633663,130.687255 5.65544554,102.75 5.65544554,68.2313725 C5.65544554,36.9362745 28.950495,10.8794118 59.1128713,6.44705882 C59.6514851,6.3127451 60.190099,6.3127451 60.7287129,6.17843137 C61.2673267,6.04411765 61.9405941,6.04411765 62.4792079,6.04411765 C64.4990099,5.90980392 66.5188119,5.7754902 68.5386139,5.7754902 C70.1544554,5.7754902 71.2316832,4.70098039 71.2316832,3.08921569 C71.2316832,1.47745098 70.1544554,0.402941176 68.5386139,0.402941176 C66.249505,0.402941176 64.0950495,0.537254902 61.8059406,0.805882353 C61.5366337,0.805882353 61.4019802,0.805882353 61.1326733,0.940196078 C60.5940594,0.940196078 60.0554455,1.0745098 59.5168317,1.0745098 C26.1227723,5.23823529 0.134653465,33.7127451 0.134653465,68.2313725 C0.134653465,105.570588 30.5663366,135.92549 68,135.92549 C105.433663,135.92549 135.865347,105.570588 135.865347,68.2313725 C136.269307,37.7421569 115.80198,10.8794118 86.3128713,2.82058824 L85.7742574,2.82058824 Z" id="Shape" fill="#053F51"></path>
            </g>
        </g>
        <path d="M80.184,68.24 L87.736,68.24 L87.736,83.536 C83.5119789,88.1866899 77.4747059,90.512 69.624,90.512 C63.0106336,90.512 57.474689,88.3360218 53.016,83.984 C48.557311,79.6319782 46.328,74.1280333 46.328,67.472 C46.328,60.8159667 48.5999773,55.2693555 53.144,50.832 C57.6880227,46.3946445 63.1813011,44.176 69.624,44.176 C76.0666989,44.176 81.421312,46.0533146 85.688,49.808 L81.656,55.568 C79.9066579,54.0746592 78.1466755,53.0400029 76.376,52.464 C74.6053245,51.8879971 72.5466784,51.6 70.2,51.6 C65.6773107,51.6 61.8800154,53.0613187 58.808,55.984 C55.7359846,58.9066813 54.2,62.7466429 54.2,67.504 C54.2,72.2613571 55.6933184,76.0799856 58.68,78.96 C61.6666816,81.8400144 65.2826454,83.28 69.528,83.28 C73.7733546,83.28 77.325319,82.3626758 80.184,80.528 L80.184,68.24 Z" id="G" fill="#FFFFFF"></path>
        <path d="M80.184,68.24 L80.184,68.24 L80.184,80.528 C77.325319,82.3626758 73.7733546,83.28 69.528,83.28 C65.2826454,83.28 61.6666816,81.8400144 58.68,78.96 C55.6933184,76.0799856 54.2,72.2613571 54.2,67.504 C54.2,62.7466429 55.7359846,58.9066813 58.808,55.984 C61.8800154,53.0613187 65.6773107,51.6 70.2,51.6 C72.5466784,51.6 74.6053245,51.8879971 76.376,52.464 C78.1466755,53.0400029 79.9066579,54.0746592 81.656,55.568 L85.688,49.808 C81.421312,46.0533146 76.0666989,44.176 69.624,44.176 C63.1813011,44.176 57.6880227,46.3946445 53.144,50.832 C48.5999773,55.2693555 46.328,60.8159667 46.328,67.472 C46.328,74.1280333 48.557311,79.6319782 53.016,83.984 C57.474689,88.3360218 63.0106336,90.512 69.624,90.512 C77.4747059,90.512 83.5119789,88.1866899 87.736,83.536 L87.736,68.24 L80.184,68.24 Z M87.736,63.24 C90.4974237,63.24 92.736,65.4785763 92.736,68.24 L92.736,83.536 C92.736,84.7790424 92.272977,85.9775147 91.4372365,86.8976735 C86.1995679,92.6643995 78.8062564,95.512 69.624,95.512 C61.7266148,95.512 54.9322128,92.841368 49.5235251,87.5620748 C44.08233,82.2510518 41.328,75.4508879 41.328,67.472 C41.328,59.4866575 44.1301756,52.6456654 49.6507022,47.2547287 C55.132528,41.9015842 61.8809696,39.176 69.624,39.176 C77.2435003,39.176 83.7782083,41.467053 88.9911395,46.0544324 C90.9033774,47.7372018 91.2448985,50.5885419 89.7841596,52.6753117 L85.7521596,58.4353117 C84.0601179,60.8525141 80.6537881,61.2865176 78.4096881,59.3708225 C77.135154,58.2828056 75.9395036,57.5799081 74.8292744,57.2187492 C73.5904169,56.8157474 72.0482228,56.6 70.2,56.6 C66.9380008,56.6 64.3796538,57.5845324 62.2543909,59.6064839 C60.2084636,61.5529565 59.2,64.0741154 59.2,67.504 C59.2,70.9522623 60.1813935,73.4618258 62.1506779,75.3607785 C64.199399,77.3363311 66.5690566,78.28 69.528,78.28 C72.8653302,78.28 75.183999,77.0832533 75.183999,77.0832533 L75.184,68.24 C75.184,65.4785763 77.4225763,63.24 80.184,63.24 L87.736,63.24 Z" id="G" fill="#053F51"></path>
    </g>
</svg>