<svg id="Layer_1" data-name="Layer 1" xmlns="https://www.w3.org/2000/svg" viewBox="0 0 14 12"><title>Artboard 10</title><g id="g24870"><path id="path24860" d="M9.86,6.36a23.5,23.5,0,0,0,3.4.41.71.71,0,1,0,0-1.42,23.5,23.5,0,0,0-3.4.41c-.2,0-.69.09-.69.3S9.67,6.32,9.86,6.36Z"/><path id="path24805" d="M.65,0A.68.68,0,0,0,.12.29.69.69,0,0,0,0,.93L1.86,5.61,3.12,8.84l-.3.75c-.07.17-.09.24-.16.38a1.1,1.1,0,0,1-.82.61l-1.12.08a.67.67,0,0,0-.46.23.68.68,0,0,0,.06,1A.67.67,0,0,0,.81,12a6.44,6.44,0,0,0,1.37-.1A2.71,2.71,0,0,0,4.07,10.1l.46-1.17,1.3-3.32L7.64.93A.69.69,0,0,0,7.57.29.68.68,0,0,0,7,0a.67.67,0,0,0-.36.13.68.68,0,0,0-.23.31L4.58,5.12,3.84,7,3.11,5.12,1.29.44A.68.68,0,0,0,1.06.13.67.67,0,0,0,.7,0h0Z"/><path id="path24858" d="M8.57,8.55a23.69,23.69,0,0,0,2.7,2.12.7.7,0,0,0,1-.22.72.72,0,0,0-.27-1A23.59,23.59,0,0,0,8.89,8c-.19-.07-.63-.28-.74-.1S8.43,8.41,8.57,8.55Z"/><path id="path24862" d="M8.57,3.56a23.69,23.69,0,0,1,2.7-2.12.7.7,0,0,1,1,.22.72.72,0,0,1-.27,1A23.59,23.59,0,0,1,8.89,4.08c-.19.07-.63.28-.74.1S8.43,3.7,8.57,3.56Z"/></g></svg>