<?xml version="1.0" encoding="UTF-8" standalone="no"?>
<!-- Generator: Adobe Illustrator 19.1.0, SVG Export Plug-In . SVG Version: 6.00 Build 0)  -->

<svg
   xmlns:dc="http://purl.org/dc/elements/1.1/"
   xmlns:cc="https://creativecommons.org/ns#"
   xmlns:rdf="https://www.w3.org/1999/02/22-rdf-syntax-ns#"
   xmlns:svg="https://www.w3.org/2000/svg"
   xmlns="https://www.w3.org/2000/svg"
   xmlns:sodipodi="http://sodipodi.sourceforge.net/DTD/sodipodi-0.dtd"
   xmlns:inkscape="https://www.inkscape.org/namespaces/inkscape"
   version="1.1"
   id="Layer_1"
   x="0px"
   y="0px"
   viewBox="-572.5 810.9 21 42"
   xml:space="preserve"
   sodipodi:docname="ribbon-down-both.svg"
   width="21"
   height="42"
   inkscape:version="0.92.1 r15371"><metadata
   id="metadata25"><rdf:RDF><cc:Work
       rdf:about=""><dc:format>image/svg+xml</dc:format><dc:type
         rdf:resource="http://purl.org/dc/dcmitype/StillImage" /></cc:Work></rdf:RDF></metadata><defs
   id="defs23" /><sodipodi:namedview
   pagecolor="#ffffff"
   bordercolor="#666666"
   borderopacity="1"
   objecttolerance="10"
   gridtolerance="10"
   guidetolerance="10"
   inkscape:pageopacity="0"
   inkscape:pageshadow="2"
   inkscape:window-width="1680"
   inkscape:window-height="1003"
   id="namedview21"
   showgrid="false"
   inkscape:zoom="5.6190476"
   inkscape:cx="10.5"
   inkscape:cy="21"
   inkscape:window-x="1676"
   inkscape:window-y="-4"
   inkscape:window-maximized="1"
   inkscape:current-layer="Layer_1" />
<style
   type="text/css"
   id="style2">
	.st0{fill-rule:evenodd;clip-rule:evenodd;}
	.st1{fill-rule:evenodd;clip-rule:evenodd;fill:#FFFFFF;}
</style>
<g
   id="g10">
	<g
   id="Artboard-1_1_">
		<g
   id="ribbon-down">
			<g
   id="Group">
				<path
   id="Shape_3_"
   d="m -562,831.9 c -5.8,0 -10.5,-4.7 -10.5,-10.5 0,-5.8 4.7,-10.5 10.5,-10.5 5.8,0 10.5,4.7 10.5,10.5 0,5.8 -4.7,10.5 -10.5,10.5 z m 0,-19.6 c -5,0 -9.1,4 -9.1,9.1 0,5.1 4.1,9.1 9.1,9.1 5,0 9.1,-4 9.1,-9.1 0,-5.1 -4.1,-9.1 -9.1,-9.1 z"
   inkscape:connector-curvature="0" />
			</g>
		</g>
	</g>
	<path
   class="st0"
   d="m -555.9,819.8 -5.8,5.9 c -0.1,0.1 -0.2,0.1 -0.3,0.1 -0.1,0 -0.2,0 -0.3,-0.1 l -5.9,-5.9 c -0.1,-0.1 -0.1,-0.2 -0.1,-0.3 0,-0.1 0.1,-0.2 0.1,-0.3 l 0.6,-0.6 c 0.1,-0.1 0.2,-0.1 0.3,-0.1 0.1,0 0.2,0 0.3,0.1 l 4.9,4.8 4.9,-4.8 c 0.1,-0.1 0.2,-0.1 0.3,-0.1 0.1,0 0.2,0 0.3,0.1 l 0.6,0.6 c 0.1,0.1 0.1,0.2 0.1,0.3 0,0.1 0,0.2 0,0.3"
   id="path8"
   inkscape:connector-curvature="0"
   style="clip-rule:evenodd;fill-rule:evenodd" />
</g>
<g
   id="g18">
	<path
   d="m -562,852.9 c -5.8,0 -10.5,-4.7 -10.5,-10.5 0,-5.8 4.7,-10.5 10.5,-10.5 5.8,0 10.5,4.7 10.5,10.5 0,5.8 -4.7,10.5 -10.5,10.5 z"
   id="path12"
   inkscape:connector-curvature="0" />
	<path
   d="m -562,833.3 c -5,0 -9.1,4 -9.1,9.1 0,5.1 4.1,9.1 9.1,9.1 5,0 9.1,-4 9.1,-9.1 0,-5.1 -4.1,-9.1 -9.1,-9.1 z"
   id="path14"
   inkscape:connector-curvature="0" />
	<path
   class="st1"
   d="m -555.9,840.8 -5.8,5.9 c -0.1,0.1 -0.2,0.1 -0.3,0.1 -0.1,0 -0.2,0 -0.3,-0.1 l -5.9,-5.9 c -0.1,-0.1 -0.1,-0.2 -0.1,-0.3 0,-0.1 0.1,-0.2 0.1,-0.3 l 0.6,-0.6 c 0.1,-0.1 0.2,-0.1 0.3,-0.1 0.1,0 0.2,0 0.3,0.1 l 4.9,4.8 4.9,-4.8 c 0.1,-0.1 0.2,-0.1 0.3,-0.1 0.1,0 0.2,0 0.3,0.1 l 0.6,0.6 c 0.1,0.1 0.1,0.2 0.1,0.3 0,0.1 0,0.2 0,0.3"
   id="path16"
   inkscape:connector-curvature="0"
   style="clip-rule:evenodd;fill:#ffffff;fill-rule:evenodd" />
</g>
</svg>